<svg xmlns="http://www.w3.org/2000/svg" width="1600" height="900" viewBox="0 0 1600 900">
  <defs>
    <linearGradient id="bg" x1="0" x2="1" y1="0" y2="1">
      <stop offset="0%" stop-color="#f5f5f7"/>
      <stop offset="100%" stop-color="#e5e5e5"/>
    </linearGradient>
    <linearGradient id="accent" x1="0" x2="1" y1="0" y2="0">
      <stop offset="0%" stop-color="#ff0a0a"/>
      <stop offset="100%" stop-color="#b30808"/>
    </linearGradient>
  </defs>
  <rect width="1600" height="900" fill="url(#bg)"/>
  <rect x="140" y="120" width="1320" height="660" rx="48" fill="#ffffff"/>
  <rect x="220" y="200" width="520" height="280" rx="28" fill="#0a0a0a"/>
  <rect x="260" y="240" width="440" height="200" rx="20" fill="#1a1a1a"/>
  <rect x="760" y="200" width="560" height="40" rx="20" fill="url(#accent)"/>
  <rect x="760" y="270" width="470" height="28" rx="14" fill="#d4d4d4"/>
  <rect x="760" y="320" width="520" height="28" rx="14" fill="#d4d4d4"/>
  <rect x="760" y="380" width="360" height="28" rx="14" fill="#d4d4d4"/>
  <circle cx="360" cy="620" r="80" fill="#1f1f1f"/>
  <circle cx="360" cy="620" r="44" fill="#666666"/>
  <circle cx="540" cy="620" r="80" fill="#1f1f1f"/>
  <circle cx="540" cy="620" r="44" fill="#666666"/>
  <text x="760" y="520" font-family="Oswald, Arial, sans-serif" font-size="56" fill="#0a0a0a">PORSCHE 911 TURBO S</text>
  <text x="760" y="580" font-family="Roboto, Arial, sans-serif" font-size="28" fill="#666666">ECU Tune + E85 Flex Fuel</text>
</svg>
