<svg xmlns="http://www.w3.org/2000/svg" width="512" height="512" viewBox="0 0 4633 4633" role="img" aria-label="Toxic Tuning favicon">
  <defs>
    <style>
      .fil0 { fill:#ED3237 }
      .fil1 { fill:#FEFEFE; fill-rule:nonzero }
    </style>
  </defs>
  <polygon class="fil0" points="0,0 31797,0 31797,4633 0,4633" />
  <g>
    <path class="fil1" d="M13748 1679l0 -7c0,-368 -299,-663 -667,-663l-1325 0c-375,0 -674,299 -674,670l393 0c0,-153 120,-277 281,-277l1325 0c154,0 278,124 278,277l389 0zm-667 1996c364,0 667,-292 667,-659l0 -7 -389 0c0,153 -124,277 -278,277l-1329 0c-153,0 -277,-127 -277,-282l0 -841 -393 0 0 841c0,372 299,671 670,671l1329 0zm-2374 0l-393 0 0 -2666 393 0 0 2666zm-741 0l-1075 -1326 1086 -1340 -506 0 -831 1029 -640 -785c-120,-146 -308,-244 -514,-244l-2351 0c-371,0 -671,299 -671,670l0 1325c0,372 300,671 671,671l1351 0c364,-15 648,-314 648,-671l0 -1167 -393 0 0 1167c0,147 -119,271 -265,278l-1341 0c-154,0 -277,-123 -277,-278l0 -1325c0,-153 123,-277 277,-277l2370 0c71,4 131,34 176,83l704 864 -1075 1326 502 0 828 -1014 824 1014 502 0zm-6977 0l-394 0 0 -2273 -1138 0 0 -393 1532 0 0 2666zm1139 -2273l-746 0 0 -393 746 0 0 393z"></path>
  </g>
</svg>
